<svg xmlns="http://www.w3.org/2000/svg" version="1.1" xmlns:xlink="http://www.w3.org/1999/xlink" xmlns:svgjs="http://svgjs.com/svgjs" width="1440" height="560" preserveAspectRatio="none" viewBox="0 0 1440 560"><g mask="url(&quot;#SvgjsMask1000&quot;)" fill="none"><rect width="1440" height="560" x="0" y="0" fill="#0e2a47"></rect><rect width="132" height="132" clip-path="url(&quot;#SvgjsClipPath1001&quot;)" x="1246.65" y="492.28" fill="url(#SvgjsPattern1002)" transform="rotate(233.94, 1312.65, 558.28)"></rect><rect width="74.2" height="74.2" clip-path="url(&quot;#SvgjsClipPath1003&quot;)" x="102.55" y="382.83" fill="url(#SvgjsPattern1004)" transform="rotate(286.74, 139.65, 419.93)"></rect><path d="M436.09 354.96L448.84 356.22 450.41 368.93 463.16 370.18 464.73 382.89 477.47 384.14 479.05 396.85M430.51 360.69L443.25 361.94 444.83 374.65 457.57 375.91 459.14 388.62 471.89 389.87 473.46 402.58" stroke="#e73635" stroke-width="1" stroke-dasharray="3, 2"></path><path d="M138.34 160.66a5.6 5.6 0 1 0 7.21-8.57 5.6 5.6 0 1 0-7.21 8.57zM148.64 148.42a5.6 5.6 0 1 0 7.22-8.57 5.6 5.6 0 1 0-7.22 8.57zM158.95 136.18a5.6 5.6 0 1 0 7.21-8.57 5.6 5.6 0 1 0-7.21 8.57zM169.25 123.93a5.6 5.6 0 1 0 7.21-8.56 5.6 5.6 0 1 0-7.21 8.56z" stroke="#d3b714" stroke-width="1.93" stroke-dasharray="2, 2"></path><path d="M363.67 92.48L352.07 87.05 354.82 74.54 343.22 69.12 345.97 56.61 334.37 51.18 337.12 38.68" stroke="#d3b714" stroke-width="1" stroke-dasharray="4, 4"></path><circle r="90.951751583577" cx="1097.35" cy="44.61" fill="#037b0b"></circle><rect width="100.19999999999999" height="100.19999999999999" clip-path="url(&quot;#SvgjsClipPath1005&quot;)" x="1286.8" y="30.05" fill="url(#SvgjsPattern1006)" transform="rotate(281.97, 1336.9, 80.15)"></rect><circle r="46.666666666666664" cx="1193.68" cy="347.73" fill="#e73635"></circle><path d="M574.27 445.83a5.6 5.6 0 1 0 10.21 4.62 5.6 5.6 0 1 0-10.21-4.62zM588.85 452.42a5.6 5.6 0 1 0 10.21 4.62 5.6 5.6 0 1 0-10.21-4.62zM603.43 459.01a5.6 5.6 0 1 0 10.21 4.62 5.6 5.6 0 1 0-10.21-4.62zM618.01 465.6a5.6 5.6 0 1 0 10.21 4.61 5.6 5.6 0 1 0-10.21-4.61z" fill="#d3b714"></path><rect width="252" height="252" clip-path="url(&quot;#SvgjsClipPath1007&quot;)" x="1195.41" y="174.99" fill="url(#SvgjsPattern1008)" transform="rotate(33.89, 1321.41, 300.99)"></rect><path d="M81.64 381.24L85.21 393.54 74 399.73 77.58 412.02 66.37 418.21 69.95 430.51 58.73 436.7M74.24 378.19L77.82 390.48 66.61 396.67 70.19 408.97 58.97 415.16 62.55 427.46 51.34 433.65M66.85 375.13L70.43 387.43 59.21 393.62 62.79 405.92 51.58 412.11 55.16 424.4 43.95 430.59" stroke="#e73635" stroke-width="2.14" stroke-dasharray="3, 2"></path><rect width="137.6" height="137.6" clip-path="url(&quot;#SvgjsClipPath1009&quot;)" x="767.97" y="12.71" fill="url(#SvgjsPattern1010)" transform="rotate(128.86, 836.77, 81.51)"></rect></g><defs><mask id="SvgjsMask1000"><rect width="1440" height="560" fill="#ffffff"></rect></mask><pattern x="0" y="0" width="132" height="6" patternUnits="userSpaceOnUse" id="SvgjsPattern1002"><rect width="132" height="3" x="0" y="0" fill="#d3b714"></rect><rect width="132" height="3" x="0" y="3" fill="rgba(0, 0, 0, 0)"></rect></pattern><clipPath id="SvgjsClipPath1001"><circle r="33" cx="1312.65" cy="558.28"></circle></clipPath><pattern x="0" y="0" width="74.2" height="7.42" patternUnits="userSpaceOnUse" id="SvgjsPattern1004"><rect width="74.2" height="3.71" x="0" y="0" fill="#037b0b"></rect><rect width="74.2" height="3.71" x="0" y="3.71" fill="rgba(0, 0, 0, 0)"></rect></pattern><clipPath id="SvgjsClipPath1003"><circle r="18.55" cx="139.65" cy="419.93"></circle></clipPath><pattern x="0" y="0" width="10.02" height="10.02" patternUnits="userSpaceOnUse" id="SvgjsPattern1006"><path d="M0 10.02L5.01 0L10.02 10.02" stroke="#e73635" fill="none"></path></pattern><clipPath id="SvgjsClipPath1005"><circle r="25.049999999999997" cx="1336.9" cy="80.15"></circle></clipPath><pattern x="0" y="0" width="252" height="6" patternUnits="userSpaceOnUse" id="SvgjsPattern1008"><rect width="252" height="3" x="0" y="0" fill="#d3b714"></rect><rect width="252" height="3" x="0" y="3" fill="rgba(0, 0, 0, 0)"></rect></pattern><clipPath id="SvgjsClipPath1007"><circle r="63" cx="1321.41" cy="300.99"></circle></clipPath><pattern x="0" y="0" width="13.76" height="13.76" patternUnits="userSpaceOnUse" id="SvgjsPattern1010"><path d="M0 13.76L6.88 0L13.76 13.76" stroke="#037b0b" fill="none"></path></pattern><clipPath id="SvgjsClipPath1009"><circle r="34.4" cx="836.77" cy="81.51"></circle></clipPath></defs></svg>